<svg xmlns="http://www.w3.org/2000/svg" viewBox="0 0 259.25 262.75"><title>Fichier 1</title><g id="Calque_2" data-name="Calque 2"><g id="Calque_1-2" data-name="Calque 1"><path id="btnScrollDown_d" data-name="btnScrollDown d" d="M129.63,262.75a127.31,127.31,0,0,1-50.45-10.33A129,129,0,0,1,38,224.27a130.67,130.67,0,0,1-27.79-41.76,133.4,133.4,0,0,1,0-102.27A130.67,130.67,0,0,1,38,38.48a129,129,0,0,1,41.2-28.16,128.47,128.47,0,0,1,100.9,0,129.21,129.21,0,0,1,41.2,28.16,132.87,132.87,0,0,1,27.78,144,131,131,0,0,1-27.78,41.76,129,129,0,0,1-41.2,28.15A127.31,127.31,0,0,1,129.63,262.75ZM85.92,94.41c-7.06,0-13.3,3.12-16.69,8.36a13.82,13.82,0,0,0,.7,16.4l43.71,57.35c3.52,4.61,9.49,7.36,16,7.36s12.47-2.75,16-7.36l43.71-57.35a13.8,13.8,0,0,0,.7-16.39c-3.39-5.24-9.63-8.37-16.69-8.37Z"/></g></g></svg>