<?xml version="1.0" encoding="utf-8"?>
<!-- Generator: Adobe Illustrator 24.0.3, SVG Export Plug-In . SVG Version: 6.00 Build 0)  -->
<svg width="1rem" heigth="1rem" version="1.1" id="Calque_1" xmlns="http://www.w3.org/2000/svg" xmlns:xlink="http://www.w3.org/1999/xlink" x="0px" y="0px"
	 viewBox="0 0 5 5" style="enable-background:new 0 0 5 5;" xml:space="preserve">
<path id="btnScrollDown_d" d="M2.5,4.9c-0.3,0-0.7-0.1-1-0.2C1.3,4.6,1,4.5,0.8,4.2C0.5,4,0.4,3.7,0.2,3.5C0.1,3.1,0,2.8,0,2.5
	c0-0.3,0.1-0.6,0.2-1C0.4,1.3,0.5,1,0.8,0.8C1,0.5,1.3,0.4,1.5,0.2c0.3-0.1,0.6-0.2,1-0.2s0.7,0.1,1,0.2C3.7,0.4,4,0.5,4.2,0.8
	C4.5,1,4.6,1.3,4.8,1.5C4.9,1.9,5,2.2,5,2.5c0,0.3-0.1,0.6-0.2,1C4.6,3.7,4.5,4,4.2,4.2C4,4.5,3.7,4.6,3.5,4.8
	C3.2,4.9,2.8,4.9,2.5,4.9z M1.7,1.8C1.5,1.8,1.4,1.9,1.4,2c-0.1,0.1-0.1,0.2,0,0.3l0.8,1.1c0.1,0.1,0.2,0.1,0.3,0.1
	c0.1,0,0.2-0.1,0.3-0.1l0.8-1.1c0.1-0.1,0.1-0.2,0-0.3C3.6,1.9,3.5,1.8,3.3,1.8H1.7z"/>
</svg>
