<svg xmlns="http://www.w3.org/2000/svg" viewBox="0 0 76.63 150.38"><defs><style>.cls-1{fill:#f8f2f2;}.cls-2{fill:#a33432;}.cls-3{fill:#992d2b;}.cls-4{fill:#892423;}.cls-5{fill:#912827;}.cls-6{fill:#a23230;}.cls-7{fill:#671517;}.cls-8{fill:#c4b2b2;}.cls-9{fill:#a09a9a;}.cls-10{fill:#a39c9b;}.cls-11{fill:#6e1416;}.cls-12{fill:#781d1e;}.cls-13{fill:#7d1e1e;}.cls-14{fill:#893735;}.cls-15{fill:#bf9f9f;}.cls-16{fill:#a25c5b;}.cls-17{fill:#ba9897;}.cls-18{fill:#c59796;}.cls-19{fill:#a14b49;}.cls-20{fill:#aca3a3;}.cls-21{fill:#ded7d7;}.cls-22{fill:#d5caca;}.cls-23{fill:#ac9e9e;}.cls-24{fill:#8a4746;}.cls-25{fill:#9d6f6f;}.cls-26{fill:#d16d6b;}.cls-27{fill:#733c3c;}.cls-28{fill:#6b1315;}.cls-29{fill:#fefefe;}.cls-30{fill:#eadede;}</style></defs><title>logo-ins</title><g id="Calque_2" data-name="Calque 2"><path class="cls-1" d="M97.94,44.28c-.56-.05-11.66-2.46-11.21-3.34-.19.37,1.81.23,2.11.38,1.57.8,2.86,2.7,4.22,3.81,5.22,4.27,12.38,5.21,17.5.17,5.38-5.29,2.72-12.15-2.68-16.07C101.64,24.7,95.11,23.79,87.7,26c-16.48,5-.48,30.3,10.3,22.12,2.72-2.07,4.55-3.77,8.2-2.18,2.6,1.13,4.74,3.38,7,5,6.38,4.58,14.15,5.86,21.84,5,5.38-.62,8.83-8.13,3-11.19-3.81-2-7.66-3.9-11.59-5.66-3.25-1.45-6.51-3.34-10.16-2.22a12.76,12.76,0,0,0-7.1,5.64,9.31,9.31,0,0,0-1,4.16,10.29,10.29,0,0,0,.54,2.8c.58,1.8.76,1.92.51.35L112,46.26c-2.9,1.55-9.39-.07-12.72-.14-4.2-.07-8.5.09-12.64-.74C84.72,45,82.94,43.07,84,46c-.57-1.62.26-3.78.75-5.36S86,36,87.31,34.84,89.1,34.1,91,34.5c7.68,1.6,14,5,21.1,8,3.54,1.48,7.41,1.88,10.93,3.33,3.73,1.54,6.69,4.66,9.74,7.22,5.88,4.93,14.41-3.52,8.49-8.49-5.75-4.81-10.79-9.2-18.17-11.21-7.12-1.95-13.18-5.79-20.2-8-6.35-2-15-5.43-21.3-1.53-5.43,3.39-8.5,11.89-9.39,17.84-1.13,7.55,1.44,12.44,8.72,14.65s15.26,1.57,22.88,2c6.21.32,16.56,1.41,17.51-7.17,0-.35-.52-5.35-1-5.08l-.13,2.28q-2.91.43.31,1.19c3,2.42,8.2,3.87,11.59,5.66l3-11.18c-4.57.52-9.24.54-13.38-1.75-3.58-2-6.38-5.1-10.08-6.92A18,18,0,0,0,99.9,33.67c-4.36.88-7,3.37-10.39,6l5.84-1.54a13.51,13.51,0,0,1-1.93-1.53c-.83-1.59-1.48-1.3-2,.85,0,0,4.79-.75,5.06-.72.94.14,4.82,3,5.19,2.85l.54-2.9a1.86,1.86,0,0,1-2-1.12c-2.76-2-4.62-4.66-8-5.81a12.63,12.63,0,0,0-9.93.73c-5.88,3.13-9.13,11.85-5.14,17.72s14.24,7.49,20.73,8.1c7.68.73,7.63-11.28,0-12Z" transform="translate(-67.38 -22.02)"/></g><g id="Calque_1" data-name="Calque 1"><path class="cls-2" d="M86,95.59c0-.23,0-.47,0-.7V92.74c0-.4,0-.8,0-1.19,0-1.46,0-2.92,0-4.38l0-1.48c.06-.93.11-1.85.17-2.78.54-1.87-.68-1.46-1.7-1.32l-15.35,2.2c-.54-.61-1.09-1.22-1.63-1.84,0-.51-.19-1.12,0-1.54,3.28-6.55,6.65-13.06,9.89-19.64,1-2,2-3.57,4.65-3.57s3.16,1.92,4,3.66a.51.51,0,0,0-.36.08,6.64,6.64,0,0,0-1.37,1.44c-1.52,2.91-3,5.84-4.39,8.83A18.81,18.81,0,0,0,79,74.76l.14,0h.14c.25.32.55,1,.74.92,3.14-.58,6.27-1.24,9.4-1.89h2.38l5.77,0c.94,0,1.88.13,2.83.15,3.54.09,7.09.16,10.63.24l-2.55.16h-3.34v3.24q0,28.64,0,57.26c0,4.07-.11,8.16.11,12.22.29,5.49.88,11,1.28,16.46a8.46,8.46,0,0,1-.46,2.21c-.47-4.55-1-9.1-1.38-13.65q-1.45-16.56-2.84-33.12c0-.58-.07-1.17-.1-1.75-.61-2-2.22-.83-3.32-.87-.43,0-1.25,1.24-1.31,2-.58,6.74-1,13.5-1.52,20.24-.72,8.77-1.57,17.53-2.33,26.29a4.83,4.83,0,0,1-2.89,4c-2.28,1.23-4.43.43-6.61-.27l-1.07-.91-.63-.86c-.08-.19-.16-.39-.23-.58-.08-.92-.15-1.85-.22-2.77.12-1.14.25-2.28.38-3.42l.15-2.28c.31-2.06.75-4.12.91-6.2.24-3,.27-6.09.39-9.13l.15-3.23.33-3c0-.77,0-1.54,0-2.31.13-1.45.27-2.91.41-4.36l0-.89.39-3.88c0-.45.07-.9.1-1.35l.42-5.31c0-.44.11-.89.16-1.33.34-2.45.84-4.89,1-7.35a33.81,33.81,0,0,0-.51-5.27c0-.4,0-.8,0-1.19,0-1.62,0-3.24,0-4.86,0-.33,0-.67,0-1C86,96.61,86,96.1,86,95.59Z" transform="translate(-67.38 -22.02)"/><path class="cls-3" d="M106.11,165.72a8.46,8.46,0,0,0,.46-2.21c-.4-5.49-1-11-1.28-16.46-.22-4.06-.11-8.15-.11-12.22q0-28.64,0-57.26V74.33h3.34q0,44.85,0,89.69c0,1.52.12,3-2.09,2.7Z" transform="translate(-67.38 -22.02)"/><path class="cls-4" d="M114.7,74.62,116.09,76c-1.73,0-2.52.8-2.39,2.63s0,3.75,0,5.62a19.42,19.42,0,0,0-.45,3c.12,10,.3,19.91.46,29.86.43,1.89-1,4.1,1,5.73a.42.42,0,0,1,.08.28l-.08,1.11a7.11,7.11,0,0,0-.92,2.32c-.06,14.17,0,28.34,0,42.51l-.45.44-2.89-.48a18.64,18.64,0,0,0,.46-3q0-42.37,0-84.75c0-2.36.3-4.72.46-7.08Z" transform="translate(-67.38 -22.02)"/><path class="cls-5" d="M111.36,74.27c-.16,2.36-.46,4.72-.46,7.08q-.06,42.38,0,84.75a18.64,18.64,0,0,1-.46,3l-2.09.25a.41.41,0,0,1-.39-.15l-.42-.54-1.08-1.89c2.21.28,2.09-1.18,2.09-2.7q0-44.84,0-89.69l2.55-.16A.27.27,0,0,1,111.36,74.27Z" transform="translate(-67.38 -22.02)"/><path class="cls-6" d="M88.5,61.45l-.14-2c.84-.62,1.66-1.76,2.52-1.79,5.08-.16,10.17-.07,15.25-.06l-.48,11-.48,1L103.3,70l-6.68,0L90,65.23l-.11-.06V65l-.39-.75-.82-1.8Z" transform="translate(-67.38 -22.02)"/><path class="cls-7" d="M141.69,70.11l.19,1.33-.27.23.34,0,0,.1.3,3.59-7.76,7.49-.44.37-3.79,3.43h0l-.77.18c.43-1.13,1.2-2.25,1.23-3.39.13-5.23.09-10.46,0-15.68,0-.51-.79-1-1.21-1.5.56-.56,1.12-1.12,1.67-1.69,1-1,1.84-1,2.59.25a4.31,4.31,0,0,1,1.17.69c1.64,2,3.23,4,4.84,6.07l.59.7-.07-.77.12-1,.84-.58A.56.56,0,0,0,141.69,70.11Z" transform="translate(-67.38 -22.02)"/><path class="cls-8" d="M106.13,57.61c-5.08,0-10.17-.1-15.25.06-.86,0-1.68,1.17-2.52,1.79-.57-1.93.22-2.76,2.16-2.71,1.24,0,2.49,0,3.59,0L92.2,53.61l2,.3.55.84.91.08.92.29,1-.25a14.94,14.94,0,0,0,2-.75c.16-.09.11-.59.16-.9a4.84,4.84,0,0,0,1.56-.61c1.93-1.79,1.79-4.16,1.7-6.5l.7.25c1.21,4.15.2,7.59-3.49,10.32,3.71,0,7.2,0,10.68,0,1.32,0,1.7.46,1.93,1.73,1,5.58.21,10.52-4.36,14.17l6.29,2.07-3.34-.35a.27.27,0,0,0-.29-.1c-3.54-.08-7.09-.15-10.63-.24-1,0-1.89-.1-2.83-.15-.58-.61-1.14-1.25-1.75-1.84-.85-.81-1.73-1.58-2.6-2.36l3.3,1.06,6.69.69,4.08-1.21.73-.46,1.54-1.5.47-.84c.22-.51.44-1,.65-1.54l.52-1.53.61-4.74-.43-.63a.34.34,0,0,0-.07-.29l-.46-1Z" transform="translate(-67.38 -22.02)"/><path class="cls-9" d="M114.77,123.15a.42.42,0,0,0-.08-.28l-.51-5.73q0-16,0-31.92a2.14,2.14,0,0,1,.44.08l1.46,1.37,0,.51c-.32.5-.92,1-.92,1.51,0,11.47-.17,22.93,1.09,34.38,1.11,10.22,1.69,20.49,2.51,30.74.29,3.63.55,7.26.91,10.88.46,4.49-3.15,8.31-7.47,7.55-1.2-.21-2.23-1.42-3.33-2.16l4.34-.09,1.48-.26,1.9-1.52.44-.6a1.08,1.08,0,0,0,.07-.31c.44-.59,1.24-1.19,1.25-1.79,0-2.32-.22-4.64-.36-7l-.1-1.38-.34-3.86-.09-1.86-.85-10-.16-2.82-.4-4.32-.14-2.34-.27-2.9-.11-1.87C115.3,125.83,115,124.49,114.77,123.15Z" transform="translate(-67.38 -22.02)"/><path class="cls-10" d="M101.79,117.2c0,.58.07,1.17.1,1.75H99.47c-.34,3.57-.7,7-1,10.44-1,12.15-1.95,24.31-3,36.46-.41,4.93-4.9,7.88-9.06,6a8,8,0,0,1-1.81-1.69l2.06.33a6.44,6.44,0,0,0,7.54-5.5c1-11.82,1.93-23.64,2.91-35.46.33-4.07.73-8.13,1.1-12.28Z" transform="translate(-67.38 -22.02)"/><path class="cls-11" d="M129.56,66.22c.42.5,1.2,1,1.21,1.5.09,5.22.13,10.45,0,15.68,0,1.14-.8,2.26-1.23,3.39l0,0-3.08,0-1.76-2v-1c1.43.12,1.44-.83,1.43-1.86,0-4.2,0-8.41-.07-12.61l.35-.31.09-.06Z" transform="translate(-67.38 -22.02)"/><path class="cls-9" d="M134.53,82.82l7.76-7.49,1-.11c.15,2.65,1.58,5.64.12,7.89-3.39,5.22-7.26,10.16-11.16,15-1.86,2.34-4.68,1.83-6.79-.81l.21-.21.74.08,3.12.1,1.88-1.44L134.24,92h0l4.29-5.72h0a51.8,51.8,0,0,0,3.69-4.86c.42-.68,0-1.84,0-2.77-.56-2-1.21-.32-1.7,0C138.5,80,136.52,81.42,134.53,82.82Z" transform="translate(-67.38 -22.02)"/><path class="cls-12" d="M126,69.34c0,4.2,0,8.41.07,12.61,0,1,0,2-1.43,1.86h0c-.62-1.73-.8-1.84-2-1.27l-5-6.26Z" transform="translate(-67.38 -22.02)"/><path class="cls-13" d="M116.12,87.18l0-.51c.45-1.45.05-2-1.46-1.37a2.14,2.14,0,0,0-.44-.08l-.48-.94c0-1.87.1-3.76,0-5.62s.66-2.61,2.39-2.63l.46.65q2.65,3.5,5.29,7c-.33,1.32-.57,2.68-1,3.95A13.77,13.77,0,0,1,119.43,90l-.49,0h0l-.48-.5Z" transform="translate(-67.38 -22.02)"/><path class="cls-14" d="M101.79,117.2H98.27c-.37,4.15-.77,8.21-1.1,12.28-1,11.82-1.89,23.64-2.91,35.46a6.44,6.44,0,0,1-7.54,5.5l-2.06-.33v0l-.48-.45-.48-.51a.83.83,0,0,0,0-.47l.1-.1c2.18.7,4.33,1.5,6.61.27a4.83,4.83,0,0,0,2.89-4c.76-8.76,1.61-17.52,2.33-26.29.56-6.74.94-13.5,1.52-20.24.06-.72.88-2,1.31-2C99.57,116.37,101.18,115.2,101.79,117.2Z" transform="translate(-67.38 -22.02)"/><path class="cls-12" d="M119.43,90a13.77,13.77,0,0,0,1.39-2.36c.45-1.27.69-2.63,1-3.95l5.6,5.93a1.56,1.56,0,0,0,.1.37c-2.17,0-1.33,1.67-1.45,2.74s.37,2.69-1.69,2.56l-.63-.09-1.09-1.28-1.38-1.49h0l-1.39-1.47-.49-.45Z" transform="translate(-67.38 -22.02)"/><path class="cls-8" d="M125.08,43c.79.26,1.59.5,2.37.78s1.56.6,2.5,1l1.11-2.19c1,1.42,1.71,2.67,2.63,3.75.52.61,1.45.85,2,1.43a11.14,11.14,0,0,1,2.31,3c.21.46-.65,1.4-1,2l-1.95-3.26.81-.53-.26-.29-.55.82c-1-.51-2-1.06-3-1.54-1.48-.71-3-2.08-4.53-.1l-2.06-2.07Zm1.63,3.29.11.34,1-.2-.18-.57Z" transform="translate(-67.38 -22.02)"/><path class="cls-15" d="M85.9,33.77l-.43-8.66c1.82-.1,3.63-.23,5.45-.27a4.68,4.68,0,0,1,1.43.46l0,.93-1.47,0c-1.13,1.31-.52,2.83-.51,4.27l-.9-.11-.22-.58-.6.58c-2.07.59-.64,2.31-1.09,3.41Z" transform="translate(-67.38 -22.02)"/><path class="cls-16" d="M103,46.11c.09,2.34.23,4.71-1.7,6.5a4.84,4.84,0,0,1-1.56.61l-.24-.92a2.11,2.11,0,0,0-.12-.38l.12-1,1-1.82-.59-3.32-.45-.45h-.08c-.9-.64-1.74-1.65-2.73-1.82s-2.2.45-3.31.73l-.37-.58c1.71-2.27,3.63-2.57,5.64-1.44.27.15.81-.16,1.22-.26.12.52.07,1.19.38,1.53A38,38,0,0,0,103,46.11Z" transform="translate(-67.38 -22.02)"/><path class="cls-17" d="M75.24,48.65l-1.87-.83c2-1.84.09-4.48,1.29-6.79l.88,1.29.57-5,.75.08V38.8l2.07.81c-.41.33-1.16.64-1.18,1a54.37,54.37,0,0,0,0,5.85c0,.24.73.43,1.12.64l1.56-.42,1.46.46.91.51a12,12,0,0,1-2,.6C79,48.43,77.11,48.52,75.24,48.65Z" transform="translate(-67.38 -22.02)"/><path class="cls-18" d="M86.14,82.91c-.06.93-.11,1.85-.17,2.78a6.34,6.34,0,0,0-2.32-.7c-3.75.45-7.47,1.21-11.24,1.53-.91.08-1.94-1.06-2.92-1.64l8.14-1Z" transform="translate(-67.38 -22.02)"/><path class="cls-19" d="M90.34,30.53c0-1.44-.62-3,.51-4.27.2,2.68.4,5.35.59,8v3.76l-4.78.5c-2-1.32-.94-3.12-.76-4.78l1.63.06c3,.37,3,.37,2.86-2.59C90.38,31,90.36,30.77,90.34,30.53Z" transform="translate(-67.38 -22.02)"/><path class="cls-19" d="M93.38,38.49l-1-.32c0-.19-.07-.38-.1-.58a2.59,2.59,0,0,0,.09-.4l1.43-3.36h3.78L97,31l-.38-2c0-.14,0-.28,0-.42l.42-.9.53-3c.22.45.43.9.65,1.34V38Z" transform="translate(-67.38 -22.02)"/><path class="cls-20" d="M93.38,38.49l4.85-.5V26c.38.65,1.06,1.29,1.09,1.95.11,3.4.05,6.81.07,10.21,0,1.25-.22,2.4-1.76,2.11S93.72,41.58,93.38,38.49Z" transform="translate(-67.38 -22.02)"/><path class="cls-20" d="M114.79,37c1.52,2,.65,3.84-.33,5.71s-1.77,3.81-2.82,5.62c-.42.7-1.47,1.64-2,1.52-.93-.22-1.68-1.18-2.51-1.83,1.06-.3,2.52-.28,3.08-1s-.06-2-.15-3.08a.54.54,0,0,1,.06-.25l0,0,1.22-.55,1-1.35Z" transform="translate(-67.38 -22.02)"/><path class="cls-9" d="M86,60.86c.16,1.12.78,2.44.39,3.33-1.42,3.29-3.18,6.44-4.82,9.64l-2.29.94h-.14l-.14,0q3.33-6.9,6.64-13.82A.51.51,0,0,1,86,60.86Z" transform="translate(-67.38 -22.02)"/><path class="cls-8" d="M123.24,42.94c-1.84.67-3.69,1.27-4,3.7-.06.46-1.33,1.23-1.44,1.14a8,8,0,0,1-2.24-2.47c-.22-.48.31-1.65.85-2.06a22.93,22.93,0,0,1,3.47-1.84Z" transform="translate(-67.38 -22.02)"/><path class="cls-21" d="M140.47,70.5l-.12,1-.52.07c-1.61-2-3.2-4.07-4.84-6.07a4.31,4.31,0,0,0-1.17-.69l1.08-.26-.09,0a25.29,25.29,0,0,1,1.7-1.88c1.5-1.38,2.32-1.06,2.88,1.09L137.54,63Z" transform="translate(-67.38 -22.02)"/><path class="cls-19" d="M92.92,43.69l.37.58C92,46,90.73,47.81,92.39,50l2.91,3.24-1.14.63-2-.3a.25.25,0,0,0-.25-.12l-.53-.18c-1.14-1.93-2.1-4-1.51-6.25a23.62,23.62,0,0,1,1.64-3.69l0,0Z" transform="translate(-67.38 -22.02)"/><path class="cls-22" d="M127.44,89.61l-5.6-5.93q-2.64-3.5-5.29-7l1.1-.4,5,6.26,1.11,1.27.88,1,1.76,2c.51.5,1,1,1.51,1.52l1.49.66v.59l-1,.36Z" transform="translate(-67.38 -22.02)"/><path class="cls-6" d="M110.11,43.75a.54.54,0,0,0-.06.25A4,4,0,0,1,107,47.75l-1.31-3-3.33-5.27c.18-1.08.35-2.15.53-3.22.6,1.42,1.21,2.83,1.81,4.25C105.8,42.77,107.17,44.59,110.11,43.75Z" transform="translate(-67.38 -22.02)"/><path class="cls-8" d="M104.68,40.52c-.6-1.42-1.21-2.83-1.81-4.25.56-1,1.13-2,1.7-3,.61.07,1.24.08,1.84.21,1,.22,1.94.51,2.92.77,0,.06.13.12.14.18s0,.19-.08.2C106.18,35.35,104.81,37.06,104.68,40.52Z" transform="translate(-67.38 -22.02)"/><path class="cls-1" d="M102.34,39.49l3.33,5.27-2,1.6-.7-.25a38,38,0,0,1-2.79-2.59c-.31-.34-.26-1-.38-1.53Z" transform="translate(-67.38 -22.02)"/><path class="cls-14" d="M86.14,82.91l-8.51,1-8.14,1L69,84.35a.61.61,0,0,0,0-.44l.11-.12,15.35-2.2C85.46,81.45,86.68,81,86.14,82.91Z" transform="translate(-67.38 -22.02)"/><path class="cls-23" d="M97.58,24.7c-.17,1-.35,2-.53,3L94.38,28c0,.36,0,.71-.07,1.07l-.56,4.26q0-4.25,0-8.49Z" transform="translate(-67.38 -22.02)"/><path class="cls-24" d="M113.24,54.31l-1.52-3,3.57-1.85.86,3.87C114.84,52.63,114,53.46,113.24,54.31Z" transform="translate(-67.38 -22.02)"/><path class="cls-24" d="M114.79,37l-2.46,4.86a4.32,4.32,0,0,1,.12-1.36c1.55-3.54.74-5.37-3-6.71l1.19-1.56a.14.14,0,0,1,.23,0l1,.58Z" transform="translate(-67.38 -22.02)"/><path class="cls-18" d="M83.49,142.41c-.12,3-.15,6.1-.39,9.13-.16,2.08-.6,4.14-.91,6.2Q82.84,150.07,83.49,142.41Z" transform="translate(-67.38 -22.02)"/><path class="cls-25" d="M123.24,42.94l-3.36-1.53c.2-.58.24-1.33.63-1.71.8-.78,1.72-1.52,2.52.19a24.3,24.3,0,0,0,2,3.12l.45,2.81-1.11-1.89-.34-.47Z" transform="translate(-67.38 -22.02)"/><path class="cls-20" d="M92.28,37.59c0,.2.06.39.1.58.26,2-1.1,2.21-2.5,2.13s-3.26.85-3.22-1.75l4.78-.5V34.29h.82v3.3Z" transform="translate(-67.38 -22.02)"/><path class="cls-23" d="M81.94,47.13l-1.46-.46h0c0-1.46.09-2.93,0-4.37a5.65,5.65,0,0,0-.86-1.81l0-.5c1.41-1.89,2.35-.78,3.27.51C82.51,42.71,82.22,44.92,81.94,47.13Z" transform="translate(-67.38 -22.02)"/><path class="cls-18" d="M86,104.17a33.81,33.81,0,0,1,.51,5.27c-.14,2.46-.64,4.9-1,7.35Q85.76,110.48,86,104.17Z" transform="translate(-67.38 -22.02)"/><path class="cls-26" d="M92.27,35.27c0-.33,0-.65,0-1l.06-8.06,0-.93,1.45-.45q0,4.24,0,8.49c0,.16,0,.32,0,.49-.48,1.12-1,2.24-1.43,3.36C92.33,36.55,92.3,35.91,92.27,35.27Z" transform="translate(-67.38 -22.02)"/><path class="cls-21" d="M84.29,49l.21,1H74.08l0-.59,1.2-.36Z" transform="translate(-67.38 -22.02)"/><path class="cls-8" d="M79.32,74.77l2.29-.94c1.65,0,3.3-.1,5-.11,1,0,1.93,0,2.9.08-3.13.65-6.26,1.31-9.4,1.89C79.87,75.73,79.57,75.09,79.32,74.77Z" transform="translate(-67.38 -22.02)"/><path class="cls-19" d="M79.52,40c0,.17,0,.33,0,.5a1.47,1.47,0,0,0-.06.42q-.3,3.1-.59,6.19c-.39-.21-1.1-.4-1.12-.64a54.37,54.37,0,0,1,0-5.85c0-.35.77-.66,1.18-1Z" transform="translate(-67.38 -22.02)"/><path class="cls-27" d="M140.47,70.5,137.54,63l1.85.75c.09.17.17.33.25.5l.21.48.16.44.46,1.3c.17.53.35,1.06.53,1.58.08.19.16.37.23.56s.18.59.26.88a2.87,2.87,0,0,0-.18.4Z" transform="translate(-67.38 -22.02)"/><path class="cls-16" d="M110.64,32.27l-1.19,1.56a1.32,1.32,0,0,1-.12.43c-1-.26-1.94-.55-2.92-.77-.6-.13-1.23-.14-1.84-.21A5.17,5.17,0,0,1,110.64,32.27Z" transform="translate(-67.38 -22.02)"/><path class="cls-24" d="M96.56,70.64l-3.3-1.06-.51-.48-.45-.44-.48-.53-.42-.51L90,65.23,96.62,70Z" transform="translate(-67.38 -22.02)"/><path class="cls-19" d="M81.94,47.13c.28-2.21.57-4.42.85-6.64.16,2.37.33,4.74.49,7.11l-.43,0Z" transform="translate(-67.38 -22.02)"/><path class="cls-14" d="M107,47.75A4,4,0,0,0,110.05,44c.09,1.06.63,2.48.15,3.08s-2,.68-3.08,1A.32.32,0,0,1,107,47.75Z" transform="translate(-67.38 -22.02)"/><path class="cls-18" d="M85.36,118.12l-.42,5.31Z" transform="translate(-67.38 -22.02)"/><path class="cls-18" d="M86,98.12c0,1.62,0,3.24,0,4.86C86,101.36,86,99.74,86,98.12Z" transform="translate(-67.38 -22.02)"/><path class="cls-13" d="M113.25,170l-4.34.09h0l-.49-.44a.28.28,0,0,1-.1-.33l2.09-.25,2.89.48C113.28,169.69,113.26,169.84,113.25,170Z" transform="translate(-67.38 -22.02)"/><path class="cls-18" d="M84.42,129.55c-.14,1.45-.28,2.91-.41,4.36C84.15,132.45,84.28,131,84.42,129.55Z" transform="translate(-67.38 -22.02)"/><path class="cls-18" d="M86,87.17c0,1.46,0,2.92,0,4.38C86,90.09,86,88.63,86,87.17Z" transform="translate(-67.38 -22.02)"/><path class="cls-18" d="M84.84,124.78l-.39,3.88Z" transform="translate(-67.38 -22.02)"/><path class="cls-27" d="M143.24,75.22l-1,.11-.3-3.59C142.4,72.9,142.82,74.06,143.24,75.22Z" transform="translate(-67.38 -22.02)"/><path class="cls-18" d="M82,160c-.13,1.14-.26,2.28-.38,3.42C81.78,162.3,81.91,161.16,82,160Z" transform="translate(-67.38 -22.02)"/><path class="cls-18" d="M84,136.22l-.33,3Z" transform="translate(-67.38 -22.02)"/><path class="cls-18" d="M86,92.74v0Z" transform="translate(-67.38 -22.02)"/><path class="cls-14" d="M67.46,82c.54.62,1.09,1.23,1.63,1.84l-.11.12a.86.86,0,0,0-.42,0Z" transform="translate(-67.38 -22.02)"/><path class="cls-25" d="M121.3,92.42l1.38,1.49Z" transform="translate(-67.38 -22.02)"/><path class="cls-25" d="M119.9,90.94l1.39,1.47Z" transform="translate(-67.38 -22.02)"/><path class="cls-18" d="M86,95.59c0,.51,0,1,0,1.53C86,96.61,86,96.1,86,95.59Z" transform="translate(-67.38 -22.02)"/><path class="cls-8" d="M88.5,61.45l.18,1Z" transform="translate(-67.38 -22.02)"/><path class="cls-14" d="M82.74,167.65l1.07.91-.1.1a1.15,1.15,0,0,0-.41,0Z" transform="translate(-67.38 -22.02)"/><path class="cls-21" d="M140.47,66.5,140,65.2Z" transform="translate(-67.38 -22.02)"/><path class="cls-25" d="M123.77,95.19l.63.09c.13.27.25.54.37.81l-.22.2Z" transform="translate(-67.38 -22.02)"/><path class="cls-8" d="M91.84,73.8h0Z" transform="translate(-67.38 -22.02)"/><path class="cls-16" d="M111.87,32.85l-1-.58Z" transform="translate(-67.38 -22.02)"/><path class="cls-9" d="M125.41,97.33l-.35-.46.09-.32.47.57Z" transform="translate(-67.38 -22.02)"/><path class="cls-25" d="M125.06,96.87l-.51-.58.22-.2.38.46Z" transform="translate(-67.38 -22.02)"/><path class="cls-9" d="M119.43,90l0,.5-.47-.47Z" transform="translate(-67.38 -22.02)"/><path class="cls-9" d="M118.46,89.52l.48.5Z" transform="translate(-67.38 -22.02)"/><path class="cls-18" d="M68.56,83.87a.86.86,0,0,1,.42,0,.61.61,0,0,1,0,.44Z" transform="translate(-67.38 -22.02)"/><path class="cls-27" d="M142,71.64l-.34,0,.27-.23Z" transform="translate(-67.38 -22.02)"/><path class="cls-21" d="M141.31,69.92a2.87,2.87,0,0,1,.18-.4c.07.2.13.4.2.59A.56.56,0,0,1,141.31,69.92Z" transform="translate(-67.38 -22.02)"/><polygon class="cls-12" points="59.07 46.96 58.98 47.01 58.98 46.87 59.07 46.96"/><path class="cls-8" d="M92.3,68.66l.45.44Z" transform="translate(-67.38 -22.02)"/><path class="cls-21" d="M141.23,68.64c-.07-.19-.15-.37-.23-.56C141.08,68.27,141.16,68.45,141.23,68.64Z" transform="translate(-67.38 -22.02)"/><path class="cls-8" d="M91.4,67.62l.42.51Z" transform="translate(-67.38 -22.02)"/><path class="cls-21" d="M139.85,64.76l-.21-.48Z" transform="translate(-67.38 -22.02)"/><path class="cls-7" d="M134.81,64.57l.09,0Z" transform="translate(-67.38 -22.02)"/><path class="cls-24" d="M89.5,64.29l.39.75Z" transform="translate(-67.38 -22.02)"/><path class="cls-8" d="M91.42,53.31l.53.18Z" transform="translate(-67.38 -22.02)"/><path class="cls-18" d="M81.88,166.21c.07.19.15.39.23.58C82,166.6,82,166.4,81.88,166.21Z" transform="translate(-67.38 -22.02)"/><path class="cls-10" d="M83.3,168.61a1.15,1.15,0,0,1,.41,0,.83.83,0,0,1,0,.47Z" transform="translate(-67.38 -22.02)"/><path class="cls-9" d="M107.5,168.61l.42.54Z" transform="translate(-67.38 -22.02)"/><path class="cls-8" d="M124.08,43.46l.34.47Z" transform="translate(-67.38 -22.02)"/><path class="cls-16" d="M91.57,43.39l0,0,.12-.13Z" transform="translate(-67.38 -22.02)"/><path class="cls-10" d="M84.17,169.64l.48.45Z" transform="translate(-67.38 -22.02)"/><path class="cls-9" d="M108.41,169.63l.49.44Z" transform="translate(-67.38 -22.02)"/><path class="cls-14" d="M85.68,60.94Q82.37,67.85,79,74.76a18.81,18.81,0,0,1,.88-3.55c1.36-3,2.87-5.92,4.39-8.83A6.64,6.64,0,0,1,85.68,60.94Z" transform="translate(-67.38 -22.02)"/><path class="cls-13" d="M116.49,138.6c.05.94.1,1.88.16,2.82.14,3.29.27,6.58.43,9.87,0,.06.28.1.42.16l.09,1.86c-.66,1.35-1.19,2.7.34,3.86,0,.46.07.92.1,1.38-.29,2.92-.59,5.83-.89,8.75a1.08,1.08,0,0,1-.07.31l-.44.6-1.9,1.52-1-.64c0-14.17,0-28.34,0-42.51a7.11,7.11,0,0,1,.92-2.32c.29,1,.58,1.94.88,2.91,0,.62.07,1.24.11,1.87l.27,2.9c0,.78.09,1.56.14,2.34C115.6,135.78,115,137.29,116.49,138.6Z" transform="translate(-67.38 -22.02)"/><path class="cls-12" d="M113.72,84.28l.48.94q0,16,0,31.92h-.45c-.16-10-.34-19.9-.46-29.86A19.42,19.42,0,0,1,113.72,84.28Z" transform="translate(-67.38 -22.02)"/><path class="cls-13" d="M113.73,117.14h.45l.51,5.73C112.75,121.24,114.16,119,113.73,117.14Z" transform="translate(-67.38 -22.02)"/><path class="cls-27" d="M115.57,127.17c-.3-1-.59-1.94-.88-2.91,0-.37,0-.74.08-1.11C115,124.49,115.3,125.83,115.57,127.17Z" transform="translate(-67.38 -22.02)"/><path class="cls-27" d="M113.74,169.09l1,.64-1.48.26c0-.15,0-.3,0-.46Z" transform="translate(-67.38 -22.02)"/><path class="cls-3" d="M106.13,57.61l4.76,0c.15.32.31.64.46,1a.34.34,0,0,1,.07.29l-.06.6-1.43,5.77h0v.48l.77.06c-.21.51-.43,1-.65,1.54a6.3,6.3,0,0,0-1.94,0,17,17,0,0,0-2.48,1.25Z" transform="translate(-67.38 -22.02)"/><path class="cls-14" d="M96.56,70.64l.06-.64,6.68,0c0,.43,0,.86,0,1.29Z" transform="translate(-67.38 -22.02)"/><path class="cls-14" d="M105.65,68.58a17,17,0,0,1,2.48-1.25,6.3,6.3,0,0,1,1.94,0c-.15.28-.31.56-.47.84l-1.54,1.5-.73.46-2.16-.58Z" transform="translate(-67.38 -22.02)"/><path class="cls-24" d="M105.17,69.54l2.16.58-4.08,1.21c0-.44,0-.87,0-1.3Z" transform="translate(-67.38 -22.02)"/><path class="cls-20" d="M129.41,89.49V88.9l.9-2.29h0c2.15-.16,3.25-1.48,3.79-3.43l.44-.37c2-1.4,4-2.83,6-4.19.49-.32,1.14-2,1.7,0l-.5.33c-1.3,1.13-2.59,2.27-3.91,3.39Z" transform="translate(-67.38 -22.02)"/><path class="cls-9" d="M134.09,83.19c-.54,2-1.64,3.27-3.79,3.43Z" transform="translate(-67.38 -22.02)"/><path class="cls-9" d="M130.31,86.61l-.9,2.29-1.49-.66,1.57-1.49,0,0Z" transform="translate(-67.38 -22.02)"/><path class="cls-27" d="M139.83,71.54l.52-.07.07.77Z" transform="translate(-67.38 -22.02)"/><path class="cls-14" d="M94.16,53.91l1.14-.63.84-.06,1.63-.35.13,0,.12-.07.88-.47.1-.07h.45l.24.92c0,.31,0,.81-.16.9a14.94,14.94,0,0,1-2,.75L97,54l-.49,1.15-.92-.29L95.38,54l-.67.75Z" transform="translate(-67.38 -22.02)"/><path class="cls-13" d="M109.93,65.25c.48-1.92.95-3.85,1.43-5.77l.49,0c-.2,1.58-.4,3.16-.61,4.74Z" transform="translate(-67.38 -22.02)"/><path class="cls-24" d="M108.06,69.66l1.54-1.5Z" transform="translate(-67.38 -22.02)"/><path class="cls-25" d="M96.54,55.12,97,54l.54.9Z" transform="translate(-67.38 -22.02)"/><path class="cls-24" d="M109.93,65.25l1.31-1-.52,1.53-.77-.06c0-.16,0-.32,0-.48Z" transform="translate(-67.38 -22.02)"/><path class="cls-25" d="M94.71,54.75l.67-.75.24.83Z" transform="translate(-67.38 -22.02)"/><path class="cls-13" d="M111.35,58.59c-.15-.31-.31-.63-.46-1C111,58,111.2,58.28,111.35,58.59Z" transform="translate(-67.38 -22.02)"/><path class="cls-24" d="M111.85,59.51l-.49,0,.06-.6Z" transform="translate(-67.38 -22.02)"/><path class="cls-27" d="M117.14,167.3c.3-2.92.6-5.83.89-8.75.14,2.32.38,4.64.36,7C118.38,166.11,117.58,166.71,117.14,167.3Z" transform="translate(-67.38 -22.02)"/><path class="cls-27" d="M117.5,151.45c-.14-.06-.41-.1-.42-.16-.16-3.29-.29-6.58-.43-9.87C116.93,144.76,117.22,148.1,117.5,151.45Z" transform="translate(-67.38 -22.02)"/><path class="cls-27" d="M117.93,157.17c-1.53-1.16-1-2.51-.34-3.86C117.7,154.59,117.82,155.88,117.93,157.17Z" transform="translate(-67.38 -22.02)"/><path class="cls-27" d="M116.49,138.6c-1.51-1.31-.89-2.82-.4-4.32C116.22,135.72,116.35,137.16,116.49,138.6Z" transform="translate(-67.38 -22.02)"/><path class="cls-27" d="M116,131.94l-.27-2.9Z" transform="translate(-67.38 -22.02)"/><path class="cls-12" d="M114.64,85.3c1.51-.63,1.91-.08,1.46,1.37Z" transform="translate(-67.38 -22.02)"/><path class="cls-27" d="M116.63,168.21l.44-.6Z" transform="translate(-67.38 -22.02)"/><path class="cls-7" d="M129.49,86.75l-1.57,1.49c-.5-.51-1-1-1.51-1.52Z" transform="translate(-67.38 -22.02)"/><path class="cls-7" d="M124.65,84.76l-.88-1h.88Z" transform="translate(-67.38 -22.02)"/><path class="cls-28" d="M129.41,89.49l8.4-7.14c1.32-1.12,2.61-2.26,3.91-3.39-.32.92-.57,1.87-1,2.76-.7,1.53-1.5,3-2.26,4.54h0c-2.69.95-3.68,3.19-4.29,5.72h0c-2.1.44-2.7,2-2.88,3.88l-1.88,1.44-3.12-.1-.74-.08-.47-.57-.38-.46c-.12-.27-.24-.54-.37-.81,2.06.13,1.57-1.37,1.69-2.56S125.37,90,127.54,90l.87-.13Z" transform="translate(-67.38 -22.02)"/><path class="cls-7" d="M138.49,86.26c.76-1.51,1.56-3,2.26-4.54.4-.89.65-1.84,1-2.76l.5-.33c0,.93.38,2.09,0,2.77A51.8,51.8,0,0,1,138.49,86.26Z" transform="translate(-67.38 -22.02)"/><path class="cls-7" d="M134.22,92c.61-2.53,1.6-4.77,4.29-5.72Z" transform="translate(-67.38 -22.02)"/><path class="cls-7" d="M131.36,95.86c.18-1.87.78-3.44,2.88-3.88Z" transform="translate(-67.38 -22.02)"/><path class="cls-7" d="M126.36,97.2l3.12.1Z" transform="translate(-67.38 -22.02)"/><path class="cls-11" d="M124.65,83.81h-.88l-1.11-1.27C123.85,82,124,82.08,124.65,83.81Z" transform="translate(-67.38 -22.02)"/><path class="cls-20" d="M128.41,89.85l-.87.13a1.56,1.56,0,0,1-.1-.37Z" transform="translate(-67.38 -22.02)"/><path class="cls-29" d="M126.71,46.3l.88-.43.18.57-1,.2Z" transform="translate(-67.38 -22.02)"/><path class="cls-1" d="M135.09,49.53l.55-.82.26.29-.81.53Z" transform="translate(-67.38 -22.02)"/><path class="cls-30" d="M90.34,30.53c0,.24,0,.47,0,.71.14,3,.14,3-2.86,2.59.45-1.1-1-2.82,1.09-3.41h.82Z" transform="translate(-67.38 -22.02)"/><path class="cls-10" d="M92.32,26.23l-.06,8.06h-.82c-.19-2.68-.39-5.35-.59-8Z" transform="translate(-67.38 -22.02)"/><path class="cls-19" d="M89.44,30.42h-.82l.6-.58Z" transform="translate(-67.38 -22.02)"/><path class="cls-23" d="M92.39,50c-1.66-2.23-.36-4,.9-5.77,1.11-.28,2.28-.91,3.31-.73s1.83,1.18,2.73,1.82c-3.15-.67-.79,2.56-2.43,3.27-.46-.57-.93-1.19-1.45-1.76-.72-.8-1.39-1.11-1.64.36v-.07l-.62.17.54.34-.88,1.17Z" transform="translate(-67.38 -22.02)"/><path class="cls-30" d="M93.81,47.23c.25-1.47.92-1.16,1.64-.36.52.57,1,1.19,1.45,1.76,1.64-.71-.72-3.94,2.43-3.27h.08l.45.46c.19,1.11.39,2.22.59,3.32H98.11L99.45,51l-.12.95-.33.38-.1.07a.94.94,0,0,0-.29,0l-1.32-1c-.08-.6-.15-1.2-.22-1.81l-1.48-.48L94.86,49Z" transform="translate(-67.38 -22.02)"/><path class="cls-10" d="M99.45,51l-1.34-1.82h2.34Z" transform="translate(-67.38 -22.02)"/><path class="cls-22" d="M99,52.29l.33-.38a2.52,2.52,0,0,1,.12.39H99Z" transform="translate(-67.38 -22.02)"/><path class="cls-23" d="M99.86,45.82l-.45-.46Z" transform="translate(-67.38 -22.02)"/><path class="cls-23" d="M78.92,47.09q.28-3.09.59-6.19a27,27,0,0,0,.06,3.49,9.42,9.42,0,0,0,.9,2.27h0Z" transform="translate(-67.38 -22.02)"/><path class="cls-21" d="M93.8,33.83c0-.17,0-.33,0-.49.18-1.42.37-2.84.56-4.26l1-.11-.08.08C95,30.46,95.53,31.18,97,31l.55,2.88Z" transform="translate(-67.38 -22.02)"/><path class="cls-30" d="M97,31c-1.5.23-2-.49-1.83-1.9L96.65,29Z" transform="translate(-67.38 -22.02)"/><path class="cls-1" d="M94.38,28l2.67-.35-.42.9.05-.08Z" transform="translate(-67.38 -22.02)"/><path class="cls-10" d="M92.27,35.27c0,.64.06,1.28.1,1.92a2.59,2.59,0,0,1-.09.4C92.28,36.82,92.27,36,92.27,35.27Z" transform="translate(-67.38 -22.02)"/><path class="cls-25" d="M96.65,29l-1.45.07.08-.08,1.4-.49-.05.08C96.63,28.7,96.64,28.84,96.65,29Z" transform="translate(-67.38 -22.02)"/><path class="cls-1" d="M109.33,34.26a1.32,1.32,0,0,0,.12-.43c3.74,1.34,4.55,3.17,3,6.71a4.32,4.32,0,0,0-.12,1.36l-1,1.35-1.22.55,0,0c-2.94.84-4.31-1-5.43-3.23.13-3.46,1.5-5.17,4.71-5.88,0,0,.09-.14.08-.2S109.38,34.32,109.33,34.26Z" transform="translate(-67.38 -22.02)"/><path class="cls-14" d="M110.14,43.8l1.22-.55Z" transform="translate(-67.38 -22.02)"/><path class="cls-1" d="M92.39,50c.16-.4.31-.8.46-1.2l.81.4L95.11,51l1,.5.15,1.27a.9.9,0,0,0-.08.42l-.84.06Z" transform="translate(-67.38 -22.02)"/><path class="cls-17" d="M96.68,28.48l-1.4.49-1,.11c0-.36,0-.71.07-1.07Z" transform="translate(-67.38 -22.02)"/><path class="cls-17" d="M80.47,46.66a9.42,9.42,0,0,1-.9-2.27,27,27,0,0,1-.06-3.49,1.47,1.47,0,0,1,.06-.42,5.65,5.65,0,0,1,.86,1.81C80.56,43.73,80.47,45.2,80.47,46.66Z" transform="translate(-67.38 -22.02)"/><path class="cls-13" d="M109.94,65.24c0,.16,0,.32,0,.48C110,65.56,109.94,65.4,109.94,65.24Z" transform="translate(-67.38 -22.02)"/><path class="cls-20" d="M96.22,52.8l-.15-1.27,1.22-.14,1.32,1-.59.48-.12.07-.13,0Z" transform="translate(-67.38 -22.02)"/><path class="cls-22" d="M96.22,52.8l1.55.07-1.63.35A.9.9,0,0,1,96.22,52.8Z" transform="translate(-67.38 -22.02)"/><path class="cls-22" d="M98,52.83l.59-.48a.94.94,0,0,1,.29,0Z" transform="translate(-67.38 -22.02)"/><path class="cls-14" d="M93.66,49.24l-.81-.4.88-1.17c0-.17.06-.34.08-.51v.07l1,1.79Z" transform="translate(-67.38 -22.02)"/><path class="cls-30" d="M93.81,47.16c0,.17,0,.34-.08.51l-.54-.34Z" transform="translate(-67.38 -22.02)"/><path class="cls-23" d="M93.66,49.24l1.2-.22.73.08c-.13.42-.26.84-.4,1.26l-.08.67Z" transform="translate(-67.38 -22.02)"/><path class="cls-19" d="M95.11,51c0-.22,0-.44.08-.67l1.88-.78c.07.61.14,1.21.22,1.81l-1.22.14Z" transform="translate(-67.38 -22.02)"/><path class="cls-22" d="M97.07,49.58l-1.88.78c.14-.42.27-.84.4-1.26Z" transform="translate(-67.38 -22.02)"/></g></svg>