<svg xmlns="http://www.w3.org/2000/svg" viewBox="0 0 945.45 536.65"><title>Fichier 2</title><g id="a95398e4-9dc3-4064-a9da-d0b41eb149c3" data-name="Calque 2"><g id="a7883bd7-e6f3-493f-98a1-ae39a19f2887" data-name="svg2"><g id="a6d3f643-50df-4a26-9e5a-c2acd2806c42" data-name="layer1"><g id="f4b2c061-fdf1-4cf2-8717-b134027a459f" data-name="g3874"><path id="f4a204cc-4075-4564-93db-5c12448ce280" data-name="path3835" d="M750.86.4C684,9.47,507.22,32.91,485.15,67.37,468.93,92.71,725,115.91,599.44,145.5,444.1,182.12,234.93,201.85,59.44,259-218.17,349.35,566.8,485.76,685.15,526.84l860,2.9C1027.45,429,216.05,325.14,393.65,272,571.92,218.6,604,211.85,768,158.49c119.4-38.87-180-75.83-214.29-94.87C500.82,34.31,714,10.51,765.75.92Z" style="fill:#333;stroke:#000;stroke-width:0.8069000244140625px"/><path d="M756.86,1.06q-33.65,4.48-67.22,9.61C662.31,14.9,635,19.49,607.91,25c-12.44,2.53-24.84,5.26-37.15,8.4A303.81,303.81,0,0,0,541,42.33h0a114.13,114.13,0,0,0-11,4.61,44.78,44.78,0,0,0-7.86,4.7,13.5,13.5,0,0,0-4.27,4.9,6.36,6.36,0,0,0-.57,2.6,6,6,0,0,0,.64,2.6h0a6.53,6.53,0,0,0,1.55,1.91,18.64,18.64,0,0,0,2.66,1.92,60.91,60.91,0,0,0,8.34,4.12c3.91,1.66,7.89,3.13,11.88,4.53h0c4.9,1.72,9.83,3.32,14.78,4.88,11.78,3.71,23.65,7.15,35.52,10.55,13,3.72,26,7.37,38.92,11.12,12.34,3.56,24.65,7.19,36.87,11.1,9.9,3.18,19.75,6.47,29.29,10.49a96.68,96.68,0,0,1,10.05,4.81,24.52,24.52,0,0,1,6,4.28,5.76,5.76,0,0,1,1.2,1.73,2,2,0,0,1,.14,1.26h0a2.73,2.73,0,0,1-.81,1.28,8.83,8.83,0,0,1-2.24,1.49,29.33,29.33,0,0,1-3,1.23c-1.68.61-3.39,1.17-5.11,1.72-5.22,1.67-10.51,3.2-15.8,4.71-16.68,4.77-33.45,9.22-50.24,13.64-48.62,12.8-97.38,25.1-146.14,37.35h0q-76.11,19.13-152.27,38-29,7.22-57.92,14.49c-11.62,2.93-23.25,5.83-34.85,8.94A171.14,171.14,0,0,0,225,264.48h0a66.46,66.46,0,0,0-14.56,7.94,30.56,30.56,0,0,0-4.77,4.37h0a19.73,19.73,0,0,0-3.1,4.76h0a14.85,14.85,0,0,0-1.29,5.13,15.5,15.5,0,0,0,.58,5.23A25.9,25.9,0,0,0,207.92,302a67.06,67.06,0,0,0,11.62,9.84,158.47,158.47,0,0,0,16.73,9.95c7,3.69,14.22,7,21.47,10.16h0c18.24,7.89,36.92,14.63,55.69,20.92h0c23.16,7.76,46.54,14.79,70,21.45h0c56.2,16,113,29.91,169.83,43.1,62.32,14.46,124.87,27.92,187.51,40.85Q830,476.68,919.43,493.81q71.57,13.8,143.2,27.2h0c16.67,3.15,33.34,6.29,50,9.52q9.08,1.76,18.12,3.56c4.34.88,8.66,1.76,12.94,2.7l2.12-9.77c-4.38-.94-8.76-1.81-13.13-2.67q-9.11-1.79-18.2-3.49-25-4.71-50.08-9.27-71.67-13.15-143.3-26.48-89.46-16.78-178.72-34.63c-62.66-12.56-125.21-25.68-187.54-39.81-56.88-12.9-113.59-26.53-169.73-42.17h0c-23.44-6.53-46.77-13.41-69.85-21h0C296.52,341.31,278,334.73,259.89,327h0c-7.18-3.06-14.27-6.31-21.16-9.88a152.9,152.9,0,0,1-16.22-9.54,62.31,62.31,0,0,1-10.79-9c-2.24-2.5-4.2-5.14-5-8a10.62,10.62,0,0,1-.42-3.51,10,10,0,0,1,.85-3.4,14.6,14.6,0,0,1,2.29-3.53h0a26,26,0,0,1,4-3.68,61.68,61.68,0,0,1,13.44-7.39h0a168.37,168.37,0,0,1,21-7.05c11.53-3.15,23.13-6.1,34.74-9.09h0q28.91-7.44,57.84-14.78,76-19.38,152.09-38.8h0c48.71-12.5,97.41-25.05,146-38.1,16.77-4.51,33.54-9,50.22-13.91,5.3-1.54,10.59-3.1,15.85-4.82,1.73-.56,3.47-1.14,5.19-1.77a30.31,30.31,0,0,0,3.25-1.35h0a11.07,11.07,0,0,0,2.82-1.93,5.07,5.07,0,0,0,1.44-2.42h0a4.48,4.48,0,0,0-.26-2.68,8,8,0,0,0-1.68-2.44,26.67,26.67,0,0,0-6.53-4.68h0a97.65,97.65,0,0,0-10.31-4.86c-9.66-4-19.59-7.29-29.53-10.42-12.26-3.86-24.61-7.43-37-10.93-13-3.68-26-7.27-39-10.92-11.88-3.34-23.75-6.72-35.53-10.36-4.94-1.53-9.87-3.11-14.75-4.79-4-1.38-7.95-2.82-11.83-4.44a60.09,60.09,0,0,1-8.18-4,16.12,16.12,0,0,1-2.48-1.78A5.07,5.07,0,0,1,519,61.23a4.68,4.68,0,0,1-.52-2A5.09,5.09,0,0,1,519,57.1a12.32,12.32,0,0,1,3.88-4.45A43.49,43.49,0,0,1,530.46,48a112.53,112.53,0,0,1,10.89-4.62h0A306.79,306.79,0,0,1,571,34.37c12.27-3.2,24.65-6,37.07-8.57,27.06-5.65,54.32-10.38,81.63-14.73q33.53-5.35,67.17-9.95Z" style="fill:#fff;stroke:#fff;stroke-width:0.8069000244140625px"/></g></g></g></g></svg>