<svg xmlns="http://www.w3.org/2000/svg" viewBox="0 0 945.45 536.65"><title>Fichier 1</title><g id="bf19e421-847b-47f8-bb8f-bdfe9fe54490" data-name="Calque 2"><g id="af08defa-3029-4569-ae00-28c8b49312d7" data-name="svg2"><g id="b758d82f-86e7-4256-9892-86620eb9e313" data-name="layer1"><g id="b4a1becb-a534-4628-a710-b9b2614408c0" data-name="g3874"><path d="M556,.44q-33.66,4.47-67.22,9.61c-27.34,4.22-54.62,8.82-81.73,14.33-12.44,2.53-24.85,5.25-37.16,8.39a308.24,308.24,0,0,0-29.81,8.93h0a115.27,115.27,0,0,0-11,4.62,44.9,44.9,0,0,0-7.86,4.7,13.49,13.49,0,0,0-4.26,4.9,5.91,5.91,0,0,0,.06,5.19h0A6.43,6.43,0,0,0,318.59,63,18.94,18.94,0,0,0,321.25,65a62.56,62.56,0,0,0,8.33,4.12c3.91,1.66,7.89,3.13,11.89,4.53h0c4.9,1.71,9.83,3.32,14.77,4.88C368,82.19,379.89,85.62,391.76,89c13,3.72,26,7.37,38.93,11.11,12.33,3.57,24.65,7.19,36.86,11.11,9.91,3.17,19.76,6.47,29.3,10.49a98.67,98.67,0,0,1,10,4.81,24.91,24.91,0,0,1,6,4.28,6,6,0,0,1,1.2,1.73,2.18,2.18,0,0,1,.14,1.26h0a2.78,2.78,0,0,1-.81,1.27,9,9,0,0,1-2.24,1.5,26.6,26.6,0,0,1-3,1.22c-1.68.61-3.38,1.17-5.1,1.72-5.23,1.67-10.51,3.21-15.81,4.72-16.68,4.76-33.45,9.22-50.24,13.64-48.62,12.8-97.37,25.1-146.14,37.35h0q-76.11,19.13-152.27,38-29,7.23-57.92,14.5c-11.61,2.92-23.25,5.82-34.85,8.93a171,171,0,0,0-21.66,7.16h0A66.19,66.19,0,0,0,9.6,271.79a30.67,30.67,0,0,0-4.77,4.38h0a19.37,19.37,0,0,0-3.1,4.75h0a15,15,0,0,0-1.3,5.13A15.54,15.54,0,0,0,1,291.29a26,26,0,0,0,6.07,10.08,67.06,67.06,0,0,0,11.63,9.83,159.44,159.44,0,0,0,16.72,10c7,3.69,14.23,7,21.48,10.16h0c18.23,7.89,36.91,14.62,55.69,20.91h0c23.15,7.76,46.54,14.79,70,21.46h0c56.21,16,113,29.91,169.83,43.1,62.33,14.46,124.87,27.92,187.51,40.85Q629.16,476,718.6,493.19q71.58,13.8,143.2,27.2h0q25,4.73,50,9.51,9.06,1.77,18.11,3.57c4.34.87,8.66,1.76,13,2.7L945,526.4c-4.39-.95-8.77-1.82-13.13-2.67q-9.11-1.79-18.21-3.49-25-4.72-50.07-9.27-71.68-13.16-143.3-26.48-89.47-16.78-178.72-34.63C478.88,437.3,416.33,424.18,354,410.05c-56.88-12.9-113.59-26.53-169.73-42.17h0c-23.44-6.53-46.77-13.42-69.85-21h0c-18.72-6.17-37.29-12.76-55.35-20.47h0c-7.18-3.07-14.26-6.31-21.16-9.88A153.91,153.91,0,0,1,21.68,307a62.69,62.69,0,0,1-10.79-9c-2.24-2.5-4.19-5.15-5-8a10.07,10.07,0,0,1-.42-3.5,9.76,9.76,0,0,1,.84-3.4,14.59,14.59,0,0,1,2.3-3.54h0a25.91,25.91,0,0,1,4-3.67,61.75,61.75,0,0,1,13.45-7.39h0a166.22,166.22,0,0,1,21-7.05c11.53-3.16,23.13-6.11,34.74-9.09h0q28.91-7.44,57.83-14.79,76-19.37,152.09-38.8h0c48.71-12.5,97.42-25,146-38.09,16.77-4.51,33.54-9.05,50.23-13.91,5.29-1.54,10.59-3.11,15.85-4.82,1.73-.56,3.46-1.14,5.18-1.78a30.2,30.2,0,0,0,3.25-1.34h0a11.11,11.11,0,0,0,2.83-1.93,5.12,5.12,0,0,0,1.44-2.42h0a4.48,4.48,0,0,0-.26-2.68,8,8,0,0,0-1.68-2.44,26.52,26.52,0,0,0-6.53-4.68h0a100.74,100.74,0,0,0-10.31-4.87c-9.67-4-19.59-7.28-29.53-10.41-12.27-3.86-24.61-7.43-37-10.93-13-3.68-26-7.27-39-10.93-11.88-3.34-23.75-6.71-35.53-10.36-4.95-1.52-9.87-3.1-14.76-4.79-4-1.37-7.94-2.81-11.82-4.43a61.46,61.46,0,0,1-8.19-4,17.9,17.9,0,0,1-2.48-1.77,5.19,5.19,0,0,1-1.27-1.51,4.87,4.87,0,0,1-.52-2.06,5.06,5.06,0,0,1,.46-2.07A12.31,12.31,0,0,1,322,52a42.89,42.89,0,0,1,7.63-4.61,113.77,113.77,0,0,1,10.9-4.62h0a303.83,303.83,0,0,1,29.66-9c12.27-3.2,24.65-6,37.07-8.57,27.07-5.65,54.32-10.38,81.63-14.74Q522.42,5.1,556.06.49Z" style="fill:#fff;stroke:#fff;stroke-width:0.8069000244140625px"/></g></g></g></g></svg>